<?xml version="1.0" encoding="UTF-8"?> <svg xmlns="http://www.w3.org/2000/svg" xmlns:xlink="http://www.w3.org/1999/xlink" xmlns:xodm="http://www.corel.com/coreldraw/odm/2003" xml:space="preserve" width="844px" height="300px" version="1.1" style="shape-rendering:geometricPrecision; text-rendering:geometricPrecision; image-rendering:optimizeQuality; fill-rule:evenodd; clip-rule:evenodd" viewBox="0 0 41.96 14.92"> <defs> <style type="text/css"> .fil1 {fill:#1D3853} .fil2 {fill:red} .fil0 {fill:#1D3853;fill-rule:nonzero} </style> </defs> <g id="Layer_x0020_1"> <metadata id="CorelCorpID_0Corel-Layer"></metadata> <g id="_1941310904112"> <path class="fil0" d="M4.18 7.43c0,0.23 -0.05,0.46 -0.15,0.66 -0.1,0.21 -0.24,0.38 -0.42,0.53 -0.17,0.15 -0.38,0.27 -0.62,0.35 -0.24,0.09 -0.51,0.13 -0.79,0.13l-2.2 0 0 -2.05 1.02 0 0 1.21 1.18 0c0.14,0 0.27,-0.02 0.39,-0.06 0.12,-0.04 0.22,-0.09 0.31,-0.16 0.08,-0.07 0.15,-0.15 0.2,-0.25 0.05,-0.1 0.07,-0.2 0.07,-0.32 0,-0.11 -0.02,-0.22 -0.07,-0.32 -0.05,-0.1 -0.12,-0.18 -0.21,-0.25 -0.09,-0.07 -0.19,-0.13 -0.31,-0.17 -0.12,-0.04 -0.24,-0.06 -0.38,-0.06l-2.2 0 0.65 -0.85 1.55 0c0.29,0 0.55,0.04 0.79,0.11 0.25,0.08 0.45,0.19 0.63,0.34 0.17,0.14 0.31,0.31 0.41,0.51 0.1,0.19 0.15,0.41 0.15,0.65zm1.54 1.67l-1.01 0 0 -3.28 1.01 0 0 3.28zm2.66 -2.05l2.1 0 0 2.05 -2.25 0c-0.29,0 -0.55,-0.04 -0.79,-0.13 -0.24,-0.08 -0.45,-0.2 -0.63,-0.35 -0.17,-0.15 -0.31,-0.32 -0.41,-0.53 -0.1,-0.2 -0.15,-0.43 -0.15,-0.66 0,-0.24 0.05,-0.46 0.15,-0.66 0.1,-0.2 0.24,-0.37 0.41,-0.51 0.18,-0.14 0.39,-0.25 0.63,-0.33 0.24,-0.08 0.5,-0.11 0.79,-0.11l2.35 0 -0.66 0.85 -1.69 0c-0.14,0 -0.27,0.02 -0.38,0.06 -0.12,0.04 -0.22,0.09 -0.31,0.17 -0.09,0.07 -0.16,0.15 -0.2,0.25 -0.05,0.1 -0.08,0.2 -0.08,0.32 0,0.12 0.03,0.22 0.07,0.32 0.05,0.1 0.12,0.18 0.2,0.25 0.09,0.07 0.19,0.12 0.31,0.16 0.12,0.04 0.25,0.06 0.39,0.06l1.24 0 0 -0.48 -1.7 0 0.61 -0.73zm3.72 2.05l-1.02 0 0 -3.28 1.02 0 0 3.28zm4.71 -3.28l-0.66 0.85 -1.17 0 0 2.43 -1.02 0 0 -2.43 -1.54 0 0.66 -0.85 3.73 0zm0.66 3.28l0.61 -0.84 0.83 0c0.09,0 0.2,0 0.3,0 0.11,0 0.2,0 0.28,0 -0.05,-0.05 -0.1,-0.13 -0.16,-0.22 -0.06,-0.09 -0.12,-0.17 -0.17,-0.25l-0.59 -0.87 -1.54 2.18 -1.21 0 2.11 -2.97c0.07,-0.09 0.16,-0.18 0.26,-0.25 0.1,-0.08 0.24,-0.12 0.4,-0.12 0.15,0 0.28,0.04 0.38,0.11 0.11,0.07 0.19,0.16 0.27,0.26l2.05 2.97 -3.82 0zm7.74 -0.84l-0.66 0.84 -2.9 0 0 -3.28 1.01 0 0 2.44 2.55 0z"></path> <g> <path class="fil1" d="M34.5 0c1.53,0 2.95,0.46 4.13,1.25 -0.24,0.17 -0.43,0.4 -0.56,0.66 -1.03,-0.66 -2.25,-1.05 -3.57,-1.05 -2.54,0 -4.75,1.44 -5.85,3.55l-0.96 0c1.17,-2.6 3.78,-4.41 6.81,-4.41zm6.46 3.73c0.64,1.1 1,2.37 1,3.73 0,4.12 -3.34,7.46 -7.46,7.46 -2.96,0 -5.51,-1.73 -6.72,-4.22l0.98 0c1.13,2 3.28,3.35 5.74,3.35 3.64,0 6.59,-2.95 6.59,-6.59 0,-1.17 -0.3,-2.26 -0.83,-3.21 0.28,-0.11 0.52,-0.29 0.7,-0.52z"></path> <path class="fil0" d="M26.95 8.26l2.25 0c0.11,0 0.19,-0.02 0.24,-0.06 0.05,-0.04 0.07,-0.1 0.07,-0.18 0,-0.07 -0.02,-0.12 -0.07,-0.16 -0.05,-0.04 -0.13,-0.06 -0.24,-0.06l-1.97 0 0.52 -0.7 1.46 0c0.08,0 0.14,-0.01 0.2,-0.04 0.06,-0.04 0.09,-0.09 0.09,-0.18 0,-0.08 -0.03,-0.14 -0.09,-0.17 -0.06,-0.03 -0.13,-0.04 -0.2,-0.04l-2.75 0 0.66 -0.85 2.05 0c0.19,0 0.37,0.02 0.53,0.05 0.16,0.04 0.29,0.1 0.41,0.17 0.11,0.08 0.2,0.18 0.26,0.29 0.06,0.11 0.09,0.24 0.09,0.39 0,0.1 -0.02,0.19 -0.04,0.26 -0.03,0.08 -0.06,0.15 -0.1,0.2 -0.04,0.06 -0.09,0.11 -0.14,0.15 -0.06,0.03 -0.11,0.06 -0.17,0.08 0.14,0.04 0.27,0.13 0.37,0.25 0.1,0.13 0.15,0.29 0.15,0.48 0,0.14 -0.03,0.27 -0.07,0.38 -0.04,0.12 -0.11,0.22 -0.21,0.3 -0.1,0.09 -0.24,0.16 -0.41,0.21 -0.17,0.04 -0.39,0.07 -0.65,0.07l-2.89 0 0.65 -0.84zm5.91 -1.59c-0.2,0 -0.38,0.04 -0.53,0.12 -0.16,0.08 -0.27,0.2 -0.35,0.34l2.08 0c0.37,0 0.67,0.07 0.89,0.23 0.22,0.15 0.34,0.38 0.34,0.67 0,0.23 -0.06,0.42 -0.18,0.56 -0.11,0.15 -0.26,0.26 -0.45,0.34 -0.19,0.09 -0.41,0.15 -0.66,0.18 -0.24,0.03 -0.5,0.04 -0.77,0.04 -0.75,0 -1.32,-0.14 -1.71,-0.41 -0.39,-0.28 -0.59,-0.72 -0.59,-1.31 0,-0.24 0.05,-0.46 0.15,-0.66 0.1,-0.2 0.24,-0.37 0.42,-0.51 0.17,-0.14 0.38,-0.25 0.62,-0.33 0.24,-0.08 0.51,-0.11 0.79,-0.11l2.12 0 -0.66 0.85 -1.51 0zm-0.88 1.11c0.03,0.11 0.08,0.2 0.15,0.26 0.07,0.07 0.16,0.13 0.27,0.16 0.1,0.04 0.23,0.07 0.38,0.08 0.15,0.01 0.32,0.02 0.51,0.02 0.21,0 0.39,-0.01 0.52,-0.02 0.14,-0.01 0.24,-0.03 0.32,-0.06 0.07,-0.02 0.13,-0.05 0.15,-0.09 0.03,-0.04 0.05,-0.08 0.05,-0.13 0,-0.15 -0.12,-0.22 -0.35,-0.22l-2 0zm5.81 -2.02c0.7,0 1.22,0.14 1.57,0.41 0.35,0.27 0.53,0.7 0.53,1.29 0,0.58 -0.18,1.01 -0.52,1.29 -0.35,0.27 -0.88,0.4 -1.58,0.4 -0.7,0 -1.22,-0.13 -1.57,-0.4 -0.35,-0.28 -0.52,-0.71 -0.52,-1.29 0,-0.59 0.17,-1.02 0.52,-1.29 0.35,-0.27 0.88,-0.41 1.57,-0.41zm0 2.54c0.2,0 0.37,-0.01 0.51,-0.03 0.14,-0.02 0.26,-0.07 0.34,-0.13 0.09,-0.06 0.15,-0.15 0.19,-0.26 0.04,-0.11 0.06,-0.25 0.06,-0.42 0,-0.18 -0.02,-0.32 -0.06,-0.43 -0.04,-0.11 -0.1,-0.2 -0.19,-0.26 -0.08,-0.06 -0.2,-0.1 -0.34,-0.12 -0.14,-0.02 -0.31,-0.03 -0.51,-0.03 -0.2,0 -0.37,0.01 -0.51,0.03 -0.14,0.02 -0.25,0.06 -0.34,0.12 -0.08,0.06 -0.14,0.15 -0.18,0.26 -0.04,0.11 -0.06,0.25 -0.06,0.43 0,0.17 0.02,0.31 0.06,0.42 0.04,0.11 0.1,0.2 0.18,0.26 0.09,0.06 0.2,0.11 0.34,0.13 0.14,0.02 0.31,0.03 0.51,0.03z"></path> <path class="fil2" d="M39.55 1.63c0.56,0 1.02,0.46 1.02,1.02 0,0.56 -0.46,1.02 -1.02,1.02 -0.56,0 -1.02,-0.46 -1.02,-1.02 0,-0.56 0.46,-1.02 1.02,-1.02z"></path> </g> </g> </g> </svg> 